<?xml version="1.0" encoding="UTF-8"?>
<svg width="138px" height="27px" viewBox="0 0 138 27" version="1.1" xmlns="http://www.w3.org/2000/svg" xmlns:xlink="http://www.w3.org/1999/xlink" shape-rendering="geometricPrecision">
    <!-- Generator: Sketch 45.2 (43514) - http://www.bohemiancoding.com/sketch -->
    <title>functions/LOGO</title>
    <desc>Created with Sketch.</desc>
    <defs>
        <polygon id="path-1" points="13.4916901 18.9381761 13.4916901 0.320814774 0.125670932 0.320814774 0.125670932 18.9381761"></polygon>
    </defs>
    <g id="Symbols" stroke="none" stroke-width="1" fill="none" fill-rule="evenodd">
        <g id="FUNCTIONS" transform="translate(-33.000000, -60.000000)">
            <g id="FUNCTIONS/Logo" transform="translate(33.000000, 60.000000)">
                <g id="LOGO">
                    <polygon id="Fill-1" fill="#FF0000" points="0 25.7781492 18.4874232 25.7781492 18.4874232 21.4817573 0 21.4817573"></polygon>
                    <polygon id="Fill-2" fill="#FF0000" points="0 18.6176644 18.4874232 18.6176644 18.4874232 14.3212726 0 14.3212726"></polygon>
                    <polygon id="Fill-3" fill="#FF0000" points="0 11.4571797 18.4874232 11.4571797 18.4874232 7.16078785 0 7.16078785"></polygon>
                    <polygon id="Fill-4" fill="#FF0000" points="6.68464006 5.05220116e-05 2.41835021 4.2964424 21.3317001 4.2964424 21.3317001 23.3432408 25.5979899 19.0473541 25.5979899 5.05220116e-05"></polygon>
                    <g id="Group-20" transform="translate(34.615945, 6.839973)">
                        <path d="M82.7238818,2.07837452 C84.3894607,2.07837452 86.13581,2.70383702 87.2801429,3.57382606 L87.8731291,1.34075315 C86.123268,0.478847627 84.448659,0.0610305901 82.4574896,0.0610305901 C74.8745908,0.0610305901 71.0106486,5.4785059 71.0106486,11.0894805 C71.0106486,16.4251102 74.3252508,19.1982634 79.7724962,19.1982634 C82.1625015,19.1982634 84.1386205,18.8350101 86.4132393,17.9023738 L87.4251286,10.6883357 L82.6004685,10.6883357 L81.7310564,16.8878918 C81.2549617,17.0293534 80.7868939,17.0899799 80.2184901,17.0899799 C76.4177596,17.0899799 75.8884868,13.3488249 75.8884868,11.0394637 C75.8884868,6.69103418 78.3010677,2.07837452 82.7238818,2.07837452" id="Fill-5" fill="#000000"></path>
                        <polygon id="Fill-7" fill="#000000" points="15.2184739 18.9383782 20.0426324 18.9383782 22.6538787 0.321016862 17.8292186 0.321016862"></polygon>
                        <polygon id="Fill-9" fill="#000000" points="0.225354821 18.9383782 10.9803785 18.9383782 11.2618212 16.9331595 5.3314576 16.9331595 6.27913182 10.1728091 11.7820638 10.1728091 12.032904 8.38230905 6.53047368 8.38230905 7.37981854 2.32623551 13.3101822 2.32623551 13.5916249 0.321016862 2.83660113 0.321016862"></polygon>
                        <g id="Group-13" transform="translate(89.800786, 0.000000)">
                            <mask id="mask-2" fill="white">
                                <use xlink:href="#path-1"></use>
                            </mask>
                            <g id="Clip-12"></g>
                            <polygon id="Fill-11" fill="#000000" mask="url(#mask-2)" points="13.2104983 2.32603342 13.491941 0.320814774 2.73691724 0.320814774 0.125670932 18.9381761 10.8806947 18.9381761 11.1621373 16.9334627 5.23177371 16.9334627 6.17944793 10.1726071 11.6823799 10.1726071 11.9332201 8.38210696 6.43078979 8.38210696 7.27963297 2.32603342"></polygon>
                        </g>
                        <polygon id="Fill-14" fill="#000000" points="25.0639512 18.9383782 29.8881096 18.9383782 31.1177282 10.1728091 36.6206601 10.1728091 36.8715003 8.38230905 31.3685683 8.38230905 32.2184149 2.32623551 38.1482768 2.32623551 38.4297195 0.321016862 27.6746958 0.321016862"></polygon>
                        <polygon id="Fill-16" fill="#000000" points="51.5682267 8.38225853 46.0652947 8.38225853 46.9151412 2.32618498 52.8455049 2.32618498 53.1264459 0.32096634 42.3714222 0.32096634 39.7611792 18.9383276 44.5853376 18.9383276 45.8144545 10.1727586 51.3173865 10.1727586"></polygon>
                        <path d="M57.8375255,11.2046202 L61.1049698,5.40216714 L62.3275648,11.2046202 L57.8375255,11.2046202 Z M61.3136688,0.313084906 L50.8566432,18.9385297 L53.4824383,18.9385297 L56.829148,12.9951203 L62.7048285,12.9951203 L63.958026,18.9385297 L68.5117787,18.9385297 L64.6403113,0.313084906 L61.3136688,0.313084906 Z" id="Fill-18" fill="#000000"></path>
                    </g>
                </g>
            </g>
        </g>
    </g>
</svg>
